<?xml version="1.0" encoding="UTF-8"?>
<!DOCTYPE svg PUBLIC "-//W3C//DTD SVG 1.1//EN" "http://www.w3.org/Graphics/SVG/1.1/DTD/svg11.dtd">
<!-- Creator: CorelDRAW 2021 (64-Bit) -->
<svg xmlns="http://www.w3.org/2000/svg" xml:space="preserve" width="25.3998mm" height="25.3998mm" version="1.1" style="shape-rendering:geometricPrecision; text-rendering:geometricPrecision; image-rendering:optimizeQuality; fill-rule:evenodd; clip-rule:evenodd"
viewBox="0 0 2539.98 2539.98"
 xmlns:xlink="http://www.w3.org/1999/xlink"
 xmlns:xodm="http://www.corel.com/coreldraw/odm/2003">
 <defs>
  <style type="text/css">
   <![CDATA[
    .str0 {stroke:#FFB3C3;stroke-width:16.93;stroke-miterlimit:22.9256}
    .fil0 {fill:#FFB3C3}
   ]]>
  </style>
 </defs>
 <g id="Warstwa_x0020_1">
  <metadata id="CorelCorpID_0Corel-Layer"/>
  <path class="fil0 str0" d="M-0.01 888c0,139.75 13.28,196.09 68.02,323.89 44.07,102.91 120.42,211.14 193.37,297.76 13.19,15.66 23.09,28.33 35.53,43.85 44.42,55.51 159.62,160.53 207.78,208.94 14.89,14.96 26.45,22.43 42.26,37.12l135.51 112.54c101.93,80.07 175.87,136.85 282.92,208.2l251.61 160.16c19.09,11.45 35.99,19.94 53,31.33l102.61 -61.1c182.4,-108.8 363.85,-234.82 528.57,-369.36l176.14 -156.25c38.86,-39.05 76.27,-62.87 124.6,-123.45 12.57,-15.75 25.21,-24.07 38.33,-41.04 81.51,-105.38 174.58,-205.63 231,-344.47 38.32,-94.33 62.78,-172.02 68.75,-254.38l0 -79.86c-3.06,-43.82 -11.13,-90.48 -24.8,-142.71 -49.03,-187.35 -171.66,-327.32 -334.45,-424.58 -80.94,-48.36 -225.58,-86.4 -340.24,-86.4 -182.19,0 -343.34,78.04 -467.53,187.31l-76.68 87.04c-10.62,13.21 -14.06,24.26 -26.3,33.23l-100.36 -117.92c-219.8,-217.32 -589.96,-251.89 -857.17,-75.63 -35.28,23.28 -64.76,48.51 -97.69,75.95 -39.55,32.96 -124.84,148.3 -144.67,197.63 -33.92,84.39 -70.11,165.5 -70.11,272.2z"/>
 </g>
</svg>
